# xmcd CD database file
# Copyright (C) 1995-1998 Ti Kan
#
# Track frame offsets:
#	150
#	13288
#	24798
#	42080
#	58115
#	71655
#	86655
#	100658
#	117378
#	139995
#	164213
#	184083
#	214578
#
# Disc length: 2925 seconds
#
# Revision: 1
# Processed by: cddbd v1.4b41PL1 Copyright (c) Steve Scherf et al.
# Submitted via: CDex 1.30Release
#
DISCID=b80b6b0d
DTITLE=Various Artist - Got Harp, If You Want It
DYEAR=1900
DGENRE=Blues
TTITLE0=That's That - Rick Estrin
TTITLE1=Don't Boss Me - Rick Estrin
TTITLE2=Bombshell Baby - Mark Hummel
TTITLE3=Sundown Blues - Charlie Musselwhite
TTITLE4=Keep On Rubbin' - Charlie Musselwhite
TTITLE5=Mojo Man - Dave Wellhausen
TTITLE6=Steady - Paul Durkett
TTITLE7=Give Me Back That Wig - William Clarke
TTITLE8=Highway 51 - Charlie Musselwhite
TTITLE9=My Babe - Andy Just
TTITLE10=Summertime - Mark Ford
TTITLE11=Temperature - Ralph Shine
TTITLE12=Getting Back On The Tracks - Ralph Shine
EXTD=ID3G:   0
EXTT0=
EXTT1=
EXTT2=
EXTT3=
EXTT4=
EXTT5=
EXTT6=
EXTT7=
EXTT8=
EXTT9=
EXTT10=
EXTT11=
EXTT12=
PLAYORDER=
